<svg xmlns="http://www.w3.org/2000/svg" xmlns:xlink="http://www.w3.org/1999/xlink" width="500" zoomAndPan="magnify" viewBox="0 0 375 374.999991" height="500" preserveAspectRatio="xMidYMid meet" version="1.0"><defs><g/><clipPath id="4ff2248a6d"><path d="M 0.800781 18 L 32 18 L 32 68 L 0.800781 68 Z M 0.800781 18 " clip-rule="nonzero"/></clipPath><clipPath id="5d11b51f96"><rect x="0" width="200" y="0" height="74"/></clipPath><clipPath id="2a87d9f12a"><path d="M 244 204.636719 L 252 204.636719 L 252 217 L 244 217 Z M 244 204.636719 " clip-rule="nonzero"/></clipPath><clipPath id="e3de38fda8"><path d="M 242 211 L 254 211 L 254 218.136719 L 242 218.136719 Z M 242 211 " clip-rule="nonzero"/></clipPath></defs><g transform="matrix(1, 0, 0, 1, 88, 150)"><g clip-path="url(#5d11b51f96)"><g clip-path="url(#4ff2248a6d)"><g fill="#000000" fill-opacity="1"><g transform="translate(0.867065, 67.650357)"><g><path d="M 22.5 -27.21875 C 25.070312 -26.03125 27.039062 -24.300781 28.40625 -22.03125 C 29.78125 -19.769531 30.46875 -17.1875 30.46875 -14.28125 C 30.46875 -11.21875 29.742188 -8.625 28.296875 -6.5 C 26.847656 -4.375 24.96875 -2.757812 22.65625 -1.65625 C 20.34375 -0.550781 17.878906 0 15.265625 0 C 15.265625 0 15.242188 0 15.203125 0 L 15.203125 -8.828125 C 15.242188 -8.828125 15.265625 -8.828125 15.265625 -8.828125 C 16.898438 -8.828125 18.328125 -9.328125 19.546875 -10.328125 C 20.773438 -11.328125 21.390625 -12.644531 21.390625 -14.28125 C 21.390625 -15.507812 21.070312 -16.550781 20.4375 -17.40625 C 19.8125 -18.269531 19.023438 -18.945312 18.078125 -19.4375 C 17.140625 -19.925781 16.203125 -20.191406 15.265625 -20.234375 C 15.054688 -20.234375 14.238281 -20.300781 12.8125 -20.4375 C 11.382812 -20.582031 9.769531 -21.066406 7.96875 -21.890625 C 5.4375 -23.078125 3.472656 -24.722656 2.078125 -26.828125 C 0.691406 -28.929688 0 -31.414062 0 -34.28125 C 0 -37.34375 0.722656 -39.976562 2.171875 -42.1875 C 3.628906 -44.394531 5.519531 -46.085938 7.84375 -47.265625 C 10.175781 -48.453125 12.648438 -49.046875 15.265625 -49.046875 C 18.085938 -49.046875 20.617188 -48.460938 22.859375 -47.296875 C 25.109375 -46.140625 26.898438 -44.503906 28.234375 -42.390625 C 29.566406 -40.285156 30.25 -37.847656 30.28125 -35.078125 C 30.320312 -34.992188 30.269531 -34.890625 30.125 -34.765625 C 29.988281 -34.640625 29.816406 -34.578125 29.609375 -34.578125 L 21.953125 -34.578125 C 21.785156 -34.578125 21.628906 -34.640625 21.484375 -34.765625 C 21.347656 -34.890625 21.28125 -34.992188 21.28125 -35.078125 C 21.238281 -36.828125 20.625 -38.117188 19.4375 -38.953125 C 18.25 -39.796875 16.859375 -40.21875 15.265625 -40.21875 C 13.585938 -40.21875 12.144531 -39.71875 10.9375 -38.71875 C 9.738281 -37.71875 9.140625 -36.238281 9.140625 -34.28125 C 9.140625 -32.519531 9.769531 -31.175781 11.03125 -30.25 C 12.300781 -29.332031 13.710938 -28.875 15.265625 -28.875 C 15.390625 -28.875 15.796875 -28.851562 16.484375 -28.8125 C 17.179688 -28.769531 18.070312 -28.632812 19.15625 -28.40625 C 20.238281 -28.1875 21.351562 -27.789062 22.5 -27.21875 Z M 22.5 -27.21875 "/></g></g></g></g><g fill="#000000" fill-opacity="1"><g transform="translate(32.869248, 67.650357)"><g><path d="M 37.40625 -40.03125 L 28.015625 -40.03125 C 26.828125 -40.070312 25.4375 -40.039062 23.84375 -39.9375 C 22.25 -39.84375 20.613281 -39.539062 18.9375 -39.03125 C 17.269531 -38.519531 15.707031 -37.710938 14.25 -36.609375 C 12.800781 -35.503906 11.632812 -33.96875 10.75 -32 C 9.875 -30.039062 9.4375 -27.550781 9.4375 -24.53125 C 9.4375 -20.644531 10.242188 -17.523438 11.859375 -15.171875 C 13.472656 -12.828125 15.679688 -11.160156 18.484375 -10.171875 C 21.285156 -9.191406 24.460938 -8.785156 28.015625 -8.953125 L 28.015625 -21.21875 L 18.578125 -21.21875 L 18.578125 -30.59375 L 37.40625 -30.59375 L 37.40625 -0.546875 C 37.40625 -0.179688 37.175781 0 36.71875 0 L 28.75 0 C 26.34375 0 23.820312 -0.160156 21.1875 -0.484375 C 18.550781 -0.816406 15.972656 -1.453125 13.453125 -2.390625 C 10.941406 -3.328125 8.675781 -4.695312 6.65625 -6.5 C 4.632812 -8.300781 3.019531 -10.671875 1.8125 -13.609375 C 0.601562 -16.554688 0 -20.195312 0 -24.53125 C 0 -28.738281 0.59375 -32.28125 1.78125 -35.15625 C 2.96875 -38.039062 4.570312 -40.390625 6.59375 -42.203125 C 8.613281 -44.023438 10.867188 -45.4375 13.359375 -46.4375 C 15.859375 -47.445312 18.4375 -48.132812 21.09375 -48.5 C 23.75 -48.863281 26.300781 -49.046875 28.75 -49.046875 L 36.71875 -49.046875 C 37.175781 -49.046875 37.40625 -48.863281 37.40625 -48.5 Z M 37.40625 -40.03125 "/></g></g></g><g fill="#000000" fill-opacity="1"><g transform="translate(72.166954, 67.650357)"><g><path d="M 9.375 -27.78125 L 0 -27.78125 L 0 -48.5 C 0 -48.863281 0.222656 -49.046875 0.671875 -49.046875 L 8.703125 -49.046875 C 9.148438 -49.046875 9.375 -48.863281 9.375 -48.5 Z M 36.671875 -49.046875 C 37.117188 -49.046875 37.34375 -48.863281 37.34375 -48.5 L 37.34375 -0.546875 C 37.34375 -0.179688 37.117188 0 36.671875 0 L 28.640625 0 C 28.179688 0 27.953125 -0.179688 27.953125 -0.546875 L 27.953125 -9.203125 L 9.375 -9.203125 L 9.375 -0.546875 C 9.375 -0.179688 9.148438 0 8.703125 0 L 0.671875 0 C 0.222656 0 0 -0.179688 0 -0.546875 L 0 -18.390625 L 9.375 -18.390625 L 9.375 -18.328125 L 27.953125 -18.328125 L 27.953125 -48.5 C 27.953125 -48.863281 28.179688 -49.046875 28.640625 -49.046875 Z M 36.671875 -49.046875 "/></g></g></g><g fill="#000000" fill-opacity="1"><g transform="translate(111.403356, 67.650357)"><g><path d="M 43.90625 -11.828125 L 43.90625 -27.40625 L 31.390625 -2.328125 C 31.304688 -2.085938 31.125 -1.96875 30.84375 -1.96875 L 23.296875 -1.96875 C 22.972656 -1.96875 22.769531 -2.085938 22.6875 -2.328125 L 9.375 -28.078125 L 9.375 -0.546875 C 9.375 -0.179688 9.148438 0 8.703125 0 L 0.609375 0 C 0.203125 0 0 -0.179688 0 -0.546875 L 0 -48.5 C 0 -48.863281 0.203125 -49.046875 0.609375 -49.046875 L 8.828125 -49.046875 C 9.148438 -49.046875 9.351562 -48.925781 9.4375 -48.6875 L 27.03125 -12.75 L 43.78125 -48.6875 C 43.9375 -48.925781 44.160156 -49.046875 44.453125 -49.046875 L 52.546875 -49.046875 C 52.992188 -49.046875 53.21875 -48.863281 53.21875 -48.5 L 53.21875 -11.828125 Z M 43.90625 -11.828125 "/></g></g></g><g fill="#000000" fill-opacity="1"><g transform="translate(167.315224, 67.650357)"><g><path d="M 23.296875 -9.140625 L 23.296875 0 L 0.671875 0 C 0.222656 0 0 -0.179688 0 -0.546875 L 0 -48.5 C 0 -48.863281 0.222656 -49.046875 0.671875 -49.046875 L 23.296875 -49.046875 L 23.296875 -40.15625 L 9.375 -40.15625 L 9.375 -29.0625 L 28.640625 -29.0625 C 29.085938 -29.0625 29.3125 -28.878906 29.3125 -28.515625 L 29.3125 -20.71875 C 29.3125 -20.351562 29.085938 -20.171875 28.640625 -20.171875 L 9.375 -20.171875 L 9.375 -9.140625 Z M 23.296875 -9.140625 "/></g></g></g></g></g><g clip-path="url(#2a87d9f12a)"><path fill="#000000" d="M 248.351562 211.160156 C 248.300781 211.175781 248.277344 211.207031 248.277344 211.253906 L 248.277344 215.976562 C 248.277344 216.050781 248.316406 216.089844 248.394531 216.089844 L 248.523438 216.089844 C 248.589844 216.089844 248.640625 216.058594 248.664062 215.996094 L 251.167969 210.019531 C 251.222656 209.886719 251.226562 209.757812 251.175781 209.621094 L 250.472656 207.675781 L 250.691406 207.675781 C 250.832031 207.675781 250.902344 207.605469 250.902344 207.464844 L 250.902344 206.621094 C 250.902344 206.480469 250.832031 206.410156 250.691406 206.410156 L 250.535156 206.410156 L 250.535156 204.847656 C 250.535156 204.707031 250.464844 204.636719 250.324219 204.636719 L 245.695312 204.636719 C 245.550781 204.636719 245.480469 204.707031 245.480469 204.847656 L 245.480469 206.027344 C 245.480469 206.09375 245.511719 206.125 245.578125 206.125 C 245.644531 206.125 245.675781 206.09375 245.675781 206.027344 L 245.675781 204.847656 C 245.675781 204.835938 245.683594 204.832031 245.695312 204.832031 L 250.324219 204.832031 C 250.335938 204.832031 250.339844 204.835938 250.339844 204.847656 L 250.339844 206.410156 L 245.328125 206.410156 C 245.1875 206.410156 245.117188 206.480469 245.117188 206.621094 L 245.117188 207.464844 C 245.117188 207.605469 245.1875 207.675781 245.328125 207.675781 L 245.542969 207.675781 L 244.839844 209.621094 C 244.792969 209.757812 244.792969 209.886719 244.847656 210.019531 L 247.351562 215.996094 C 247.378906 216.058594 247.425781 216.089844 247.496094 216.089844 L 247.621094 216.089844 C 247.699219 216.089844 247.738281 216.050781 247.738281 215.976562 L 247.738281 211.253906 C 247.738281 211.207031 247.714844 211.175781 247.667969 211.160156 C 247.398438 211.082031 247.183594 210.929688 247.023438 210.707031 C 246.863281 210.480469 246.792969 210.234375 246.808594 209.960938 C 246.839844 209.378906 247.371094 208.867188 247.960938 208.84375 C 248.265625 208.832031 248.53125 208.921875 248.769531 209.109375 C 249.003906 209.296875 249.144531 209.539062 249.195312 209.832031 C 249.242188 210.128906 249.1875 210.402344 249.027344 210.652344 C 248.867188 210.90625 248.640625 211.074219 248.351562 211.160156 Z M 245.3125 207.464844 L 245.3125 206.621094 C 245.3125 206.609375 245.316406 206.605469 245.328125 206.605469 L 250.691406 206.605469 C 250.699219 206.605469 250.703125 206.609375 250.703125 206.621094 L 250.703125 207.464844 C 250.703125 207.476562 250.699219 207.480469 250.691406 207.480469 L 245.328125 207.480469 C 245.316406 207.480469 245.3125 207.476562 245.3125 207.464844 Z M 245.3125 207.464844 " fill-opacity="1" fill-rule="nonzero"/></g><path fill="#000000" d="M 249.820312 217.160156 C 250.25 216.984375 250.644531 216.753906 251.007812 216.464844 C 251.367188 216.179688 251.679688 215.847656 251.941406 215.46875 C 252.203125 215.09375 252.40625 214.6875 252.546875 214.253906 C 252.6875 213.816406 252.765625 213.371094 252.773438 212.914062 L 253.175781 212.914062 C 253.316406 212.914062 253.386719 212.84375 253.386719 212.703125 L 253.386719 211.726562 C 253.386719 211.585938 253.316406 211.515625 253.175781 211.515625 L 252.179688 211.515625 C 252.039062 211.515625 251.96875 211.585938 251.96875 211.726562 L 251.96875 212.703125 C 251.96875 212.84375 252.039062 212.914062 252.179688 212.914062 L 252.578125 212.914062 C 252.566406 213.351562 252.496094 213.777344 252.359375 214.195312 C 252.222656 214.613281 252.027344 215 251.777344 215.363281 C 251.527344 215.722656 251.226562 216.042969 250.882812 216.316406 C 250.535156 216.59375 250.15625 216.8125 249.746094 216.980469 C 249.6875 217.003906 249.667969 217.046875 249.691406 217.105469 C 249.71875 217.164062 249.761719 217.183594 249.820312 217.160156 Z M 252.179688 212.722656 C 252.167969 212.722656 252.164062 212.714844 252.164062 212.703125 L 252.164062 211.726562 C 252.164062 211.714844 252.167969 211.710938 252.179688 211.710938 L 253.175781 211.710938 C 253.183594 211.710938 253.191406 211.714844 253.191406 211.726562 L 253.191406 212.703125 C 253.191406 212.714844 253.183594 212.722656 253.175781 212.722656 Z M 252.179688 212.722656 " fill-opacity="1" fill-rule="nonzero"/><g clip-path="url(#e3de38fda8)"><path fill="#000000" d="M 242.726562 218.113281 C 242.90625 218.113281 243.058594 218.054688 243.195312 217.941406 C 243.328125 217.824219 243.40625 217.683594 243.429688 217.507812 L 247.296875 217.507812 L 247.296875 217.902344 C 247.296875 218.042969 247.371094 218.113281 247.511719 218.113281 L 248.503906 218.113281 C 248.648438 218.113281 248.71875 218.042969 248.71875 217.902344 L 248.71875 217.507812 L 252.585938 217.507812 C 252.601562 217.628906 252.648438 217.734375 252.71875 217.828125 C 252.792969 217.925781 252.882812 217.996094 252.992188 218.046875 C 253.101562 218.097656 253.21875 218.117188 253.339844 218.109375 C 253.460938 218.101562 253.570312 218.066406 253.671875 218 C 253.773438 217.9375 253.855469 217.851562 253.910156 217.75 C 253.96875 217.644531 254 217.53125 254 217.414062 C 254 217.292969 253.96875 217.183594 253.910156 217.078125 C 253.855469 216.972656 253.773438 216.886719 253.671875 216.824219 C 253.570312 216.761719 253.460938 216.722656 253.339844 216.714844 C 253.21875 216.707031 253.101562 216.726562 252.992188 216.777344 C 252.882812 216.828125 252.792969 216.898438 252.71875 216.996094 C 252.648438 217.089844 252.601562 217.199219 252.585938 217.316406 L 248.71875 217.316406 L 248.71875 216.921875 C 248.71875 216.785156 248.648438 216.714844 248.503906 216.714844 L 247.511719 216.714844 C 247.371094 216.714844 247.296875 216.785156 247.296875 216.921875 L 247.296875 217.261719 C 245.121094 216.929688 243.488281 215.085938 243.4375 212.914062 L 243.835938 212.914062 C 243.980469 212.914062 244.050781 212.84375 244.050781 212.703125 L 244.050781 211.726562 C 244.050781 211.585938 243.980469 211.515625 243.835938 211.515625 L 242.84375 211.515625 C 242.699219 211.515625 242.628906 211.585938 242.628906 211.726562 L 242.628906 212.703125 C 242.628906 212.84375 242.699219 212.914062 242.84375 212.914062 L 243.242188 212.914062 C 243.253906 213.410156 243.339844 213.894531 243.507812 214.363281 C 243.675781 214.832031 243.910156 215.265625 244.21875 215.660156 C 244.523438 216.058594 244.882812 216.394531 245.300781 216.679688 C 245.714844 216.960938 246.164062 217.175781 246.648438 217.316406 L 243.429688 217.316406 C 243.40625 217.132812 243.316406 216.980469 243.167969 216.863281 C 243.019531 216.75 242.851562 216.699219 242.664062 216.71875 C 242.472656 216.734375 242.316406 216.8125 242.191406 216.953125 C 242.066406 217.09375 242.011719 217.257812 242.019531 217.445312 C 242.027344 217.632812 242.101562 217.789062 242.238281 217.917969 C 242.375 218.046875 242.539062 218.113281 242.726562 218.113281 Z M 253.289062 216.90625 C 253.289062 216.90625 253.289062 216.90625 253.292969 216.90625 C 253.183594 217.015625 253.113281 217.199219 253.113281 217.414062 C 253.113281 217.625 253.183594 217.808594 253.292969 217.917969 C 253.289062 217.917969 253.289062 217.917969 253.289062 217.917969 C 253.148438 217.917969 253.027344 217.867188 252.925781 217.769531 C 252.824219 217.671875 252.777344 217.550781 252.777344 217.414062 C 252.777344 217.273438 252.824219 217.152344 252.925781 217.054688 C 253.027344 216.957031 253.148438 216.90625 253.289062 216.90625 Z M 247.496094 216.921875 C 247.496094 216.914062 247.5 216.90625 247.511719 216.90625 L 248.503906 216.90625 C 248.515625 216.90625 248.523438 216.914062 248.523438 216.921875 L 248.523438 217.902344 C 248.523438 217.914062 248.515625 217.917969 248.503906 217.917969 L 247.511719 217.917969 C 247.5 217.917969 247.496094 217.914062 247.496094 217.902344 Z M 242.84375 212.722656 C 242.832031 212.722656 242.828125 212.714844 242.828125 212.703125 L 242.828125 211.726562 C 242.828125 211.714844 242.832031 211.710938 242.84375 211.710938 L 243.835938 211.710938 C 243.847656 211.710938 243.851562 211.714844 243.851562 211.726562 L 243.851562 212.703125 C 243.851562 212.714844 243.847656 212.722656 243.835938 212.722656 Z M 242.726562 216.90625 C 242.730469 216.90625 242.730469 216.90625 242.730469 216.90625 C 242.621094 217.015625 242.550781 217.199219 242.550781 217.414062 C 242.550781 217.625 242.621094 217.808594 242.730469 217.917969 C 242.730469 217.917969 242.730469 217.917969 242.726562 217.917969 C 242.585938 217.917969 242.464844 217.867188 242.367188 217.769531 C 242.265625 217.671875 242.214844 217.550781 242.214844 217.414062 C 242.214844 217.273438 242.265625 217.152344 242.367188 217.054688 C 242.464844 216.957031 242.585938 216.90625 242.726562 216.90625 Z M 242.726562 216.90625 " fill-opacity="1" fill-rule="nonzero"/></g></svg>