<svg xmlns="http://www.w3.org/2000/svg" xmlns:xlink="http://www.w3.org/1999/xlink" width="500" zoomAndPan="magnify" viewBox="0 0 375 374.999991" height="500" preserveAspectRatio="xMidYMid meet" version="1.0"><defs><g/><clipPath id="0bb8eeee8c"><path d="M 0.71875 0.71875 L 363.839844 0.71875 L 363.839844 135.601562 L 0.71875 135.601562 Z M 0.71875 0.71875 " clip-rule="nonzero"/></clipPath><clipPath id="1840237ad2"><rect x="0" width="364" y="0" height="136"/></clipPath><clipPath id="0902e937b2"><path d="M 286 100.542969 L 299 100.542969 L 299 122 L 286 122 Z M 286 100.542969 " clip-rule="nonzero"/></clipPath><clipPath id="4e21942f71"><path d="M 281.234375 113 L 303.191406 113 L 303.191406 125.25 L 281.234375 125.25 Z M 281.234375 113 " clip-rule="nonzero"/></clipPath><clipPath id="72bf414ad0"><rect x="0" width="364" y="0" height="136"/></clipPath></defs><g transform="matrix(1, 0, 0, 1, 6, 96)"><g clip-path="url(#72bf414ad0)"><g clip-path="url(#0bb8eeee8c)"><g><g clip-path="url(#1840237ad2)"><g fill="#000000" fill-opacity="1"><g transform="translate(1.005531, 124.358393)"><g><path d="M 41.171875 -49.8125 C 45.890625 -47.644531 49.5 -44.484375 52 -40.328125 C 54.507812 -36.179688 55.765625 -31.453125 55.765625 -26.140625 C 55.765625 -20.535156 54.4375 -15.785156 51.78125 -11.890625 C 49.125 -8.003906 45.679688 -5.050781 41.453125 -3.03125 C 37.234375 -1.007812 32.726562 0 27.9375 0 C 27.9375 0 27.898438 0 27.828125 0 L 27.828125 -16.15625 C 27.898438 -16.15625 27.9375 -16.15625 27.9375 -16.15625 C 30.925781 -16.15625 33.539062 -17.070312 35.78125 -18.90625 C 38.03125 -20.738281 39.15625 -23.148438 39.15625 -26.140625 C 39.15625 -28.390625 38.578125 -30.296875 37.421875 -31.859375 C 36.265625 -33.429688 34.820312 -34.664062 33.09375 -35.5625 C 31.375 -36.46875 29.65625 -36.957031 27.9375 -37.03125 C 27.5625 -37.03125 26.0625 -37.160156 23.4375 -37.421875 C 20.820312 -37.679688 17.875 -38.5625 14.59375 -40.0625 C 9.945312 -42.226562 6.351562 -45.238281 3.8125 -49.09375 C 1.269531 -52.945312 0 -57.488281 0 -62.71875 C 0 -68.332031 1.328125 -73.15625 3.984375 -77.1875 C 6.640625 -81.226562 10.097656 -84.332031 14.359375 -86.5 C 18.617188 -88.675781 23.144531 -89.765625 27.9375 -89.765625 C 33.101562 -89.765625 37.738281 -88.695312 41.84375 -86.5625 C 45.957031 -84.425781 49.226562 -81.429688 51.65625 -77.578125 C 54.09375 -73.734375 55.347656 -69.269531 55.421875 -64.1875 C 55.503906 -64.03125 55.410156 -63.835938 55.140625 -63.609375 C 54.878906 -63.390625 54.5625 -63.28125 54.1875 -63.28125 L 40.171875 -63.28125 C 39.867188 -63.28125 39.585938 -63.390625 39.328125 -63.609375 C 39.066406 -63.835938 38.9375 -64.03125 38.9375 -64.1875 C 38.863281 -67.394531 37.738281 -69.765625 35.5625 -71.296875 C 33.394531 -72.835938 30.851562 -73.609375 27.9375 -73.609375 C 24.875 -73.609375 22.238281 -72.691406 20.03125 -70.859375 C 17.820312 -69.023438 16.71875 -66.3125 16.71875 -62.71875 C 16.71875 -59.5 17.875 -57.046875 20.1875 -55.359375 C 22.507812 -53.679688 25.09375 -52.84375 27.9375 -52.84375 C 28.164062 -52.84375 28.914062 -52.804688 30.1875 -52.734375 C 31.457031 -52.660156 33.082031 -52.414062 35.0625 -52 C 37.039062 -51.59375 39.078125 -50.863281 41.171875 -49.8125 Z M 41.171875 -49.8125 "/></g></g></g><g fill="#000000" fill-opacity="1"><g transform="translate(59.568287, 124.358393)"><g><path d="M 68.4375 -73.265625 L 51.28125 -73.265625 C 49.101562 -73.335938 46.554688 -73.28125 43.640625 -73.09375 C 40.722656 -72.90625 37.734375 -72.34375 34.671875 -71.40625 C 31.609375 -70.476562 28.75 -69.003906 26.09375 -66.984375 C 23.4375 -64.960938 21.300781 -62.15625 19.6875 -58.5625 C 18.082031 -54.976562 17.28125 -50.414062 17.28125 -44.875 C 17.28125 -37.769531 18.753906 -32.066406 21.703125 -27.765625 C 24.660156 -23.460938 28.703125 -20.414062 33.828125 -18.625 C 38.953125 -16.832031 44.769531 -16.082031 51.28125 -16.375 L 51.28125 -38.828125 L 34 -38.828125 L 34 -55.984375 L 68.4375 -55.984375 L 68.4375 -1.015625 C 68.4375 -0.335938 68.023438 0 67.203125 0 L 52.625 0 C 48.207031 0 43.585938 -0.296875 38.765625 -0.890625 C 33.941406 -1.492188 29.226562 -2.65625 24.625 -4.375 C 20.03125 -6.09375 15.878906 -8.597656 12.171875 -11.890625 C 8.472656 -15.179688 5.519531 -19.519531 3.3125 -24.90625 C 1.101562 -30.289062 0 -36.945312 0 -44.875 C 0 -52.582031 1.082031 -59.070312 3.25 -64.34375 C 5.414062 -69.625 8.347656 -73.925781 12.046875 -77.25 C 15.753906 -80.582031 19.890625 -83.164062 24.453125 -85 C 29.015625 -86.832031 33.726562 -88.082031 38.59375 -88.75 C 43.457031 -89.425781 48.132812 -89.765625 52.625 -89.765625 L 67.203125 -89.765625 C 68.023438 -89.765625 68.4375 -89.425781 68.4375 -88.75 Z M 68.4375 -73.265625 "/></g></g></g><g fill="#000000" fill-opacity="1"><g transform="translate(131.481566, 124.358393)"><g><path d="M 17.171875 -50.828125 L 0 -50.828125 L 0 -88.75 C 0 -89.425781 0.410156 -89.765625 1.234375 -89.765625 L 15.9375 -89.765625 C 16.757812 -89.765625 17.171875 -89.425781 17.171875 -88.75 Z M 67.09375 -89.765625 C 67.914062 -89.765625 68.328125 -89.425781 68.328125 -88.75 L 68.328125 -1.015625 C 68.328125 -0.335938 67.914062 0 67.09375 0 L 52.40625 0 C 51.582031 0 51.171875 -0.335938 51.171875 -1.015625 L 51.171875 -16.828125 L 17.171875 -16.828125 L 17.171875 -1.015625 C 17.171875 -0.335938 16.757812 0 15.9375 0 L 1.234375 0 C 0.410156 0 0 -0.335938 0 -1.015625 L 0 -33.65625 L 17.171875 -33.65625 L 17.171875 -33.546875 L 51.171875 -33.546875 L 51.171875 -88.75 C 51.171875 -89.425781 51.582031 -89.765625 52.40625 -89.765625 Z M 67.09375 -89.765625 "/></g></g></g><g fill="#000000" fill-opacity="1"><g transform="translate(203.282661, 124.358393)"><g><path d="M 80.34375 -21.65625 L 80.34375 -50.15625 L 57.453125 -4.265625 C 57.296875 -3.816406 56.957031 -3.59375 56.4375 -3.59375 L 42.640625 -3.59375 C 42.035156 -3.59375 41.660156 -3.816406 41.515625 -4.265625 L 17.171875 -51.390625 L 17.171875 -1.015625 C 17.171875 -0.335938 16.757812 0 15.9375 0 L 1.125 0 C 0.375 0 0 -0.335938 0 -1.015625 L 0 -88.75 C 0 -89.425781 0.375 -89.765625 1.125 -89.765625 L 16.15625 -89.765625 C 16.757812 -89.765625 17.132812 -89.539062 17.28125 -89.09375 L 49.484375 -23.34375 L 80.109375 -89.09375 C 80.410156 -89.539062 80.820312 -89.765625 81.34375 -89.765625 L 96.15625 -89.765625 C 96.976562 -89.765625 97.390625 -89.425781 97.390625 -88.75 L 97.390625 -21.65625 Z M 80.34375 -21.65625 "/></g></g></g><g fill="#000000" fill-opacity="1"><g transform="translate(305.599215, 124.358393)"><g><path d="M 42.640625 -16.71875 L 42.640625 0 L 1.234375 0 C 0.410156 0 0 -0.335938 0 -1.015625 L 0 -88.75 C 0 -89.425781 0.410156 -89.765625 1.234375 -89.765625 L 42.640625 -89.765625 L 42.640625 -73.5 L 17.171875 -73.5 L 17.171875 -53.1875 L 52.40625 -53.1875 C 53.226562 -53.1875 53.640625 -52.847656 53.640625 -52.171875 L 53.640625 -37.921875 C 53.640625 -37.253906 53.226562 -36.921875 52.40625 -36.921875 L 17.171875 -36.921875 L 17.171875 -16.71875 Z M 42.640625 -16.71875 "/></g></g></g></g></g></g><g clip-path="url(#0902e937b2)"><path fill="#000000" d="M 292.855469 112.480469 C 292.765625 112.507812 292.722656 112.566406 292.722656 112.65625 L 292.722656 121.292969 C 292.722656 121.433594 292.792969 121.503906 292.933594 121.503906 L 293.167969 121.503906 C 293.292969 121.503906 293.382812 121.445312 293.429688 121.332031 L 298.007812 110.390625 C 298.109375 110.152344 298.117188 109.914062 298.027344 109.667969 L 296.738281 106.101562 L 297.136719 106.101562 C 297.242188 106.101562 297.332031 106.066406 297.410156 105.992188 C 297.484375 105.917969 297.523438 105.828125 297.523438 105.722656 L 297.523438 104.171875 C 297.523438 104.066406 297.484375 103.976562 297.410156 103.902344 C 297.332031 103.828125 297.242188 103.789062 297.136719 103.789062 L 296.855469 103.789062 L 296.855469 100.929688 C 296.855469 100.820312 296.816406 100.730469 296.742188 100.65625 C 296.664062 100.582031 296.570312 100.542969 296.464844 100.542969 L 287.992188 100.542969 C 287.882812 100.542969 287.792969 100.582031 287.714844 100.65625 C 287.640625 100.730469 287.601562 100.820312 287.601562 100.929688 L 287.601562 103.089844 C 287.601562 103.210938 287.660156 103.269531 287.78125 103.269531 C 287.902344 103.269531 287.960938 103.210938 287.960938 103.089844 L 287.960938 100.929688 C 287.960938 100.90625 287.972656 100.898438 287.992188 100.898438 L 296.464844 100.898438 C 296.484375 100.898438 296.496094 100.90625 296.496094 100.929688 L 296.496094 103.789062 L 287.320312 103.789062 C 287.214844 103.789062 287.125 103.828125 287.046875 103.902344 C 286.972656 103.976562 286.933594 104.066406 286.933594 104.171875 L 286.933594 105.722656 C 286.933594 105.828125 286.972656 105.917969 287.046875 105.992188 C 287.125 106.066406 287.214844 106.101562 287.320312 106.101562 L 287.71875 106.101562 L 286.429688 109.667969 C 286.339844 109.914062 286.347656 110.152344 286.449219 110.390625 L 291.027344 121.332031 C 291.074219 121.445312 291.164062 121.503906 291.289062 121.503906 L 291.523438 121.503906 C 291.664062 121.503906 291.734375 121.433594 291.734375 121.292969 L 291.734375 112.65625 C 291.734375 112.566406 291.691406 112.507812 291.601562 112.480469 C 291.363281 112.414062 291.144531 112.304688 290.945312 112.164062 C 290.742188 112.023438 290.570312 111.851562 290.429688 111.652344 C 290.285156 111.453125 290.179688 111.234375 290.113281 111 C 290.046875 110.765625 290.019531 110.527344 290.03125 110.285156 C 290.089844 109.21875 291.058594 108.285156 292.140625 108.242188 C 292.410156 108.230469 292.671875 108.269531 292.925781 108.351562 C 293.179688 108.4375 293.410156 108.5625 293.617188 108.726562 C 293.824219 108.894531 293.996094 109.09375 294.132812 109.320312 C 294.265625 109.546875 294.355469 109.792969 294.398438 110.054688 C 294.441406 110.3125 294.4375 110.574219 294.386719 110.832031 C 294.332031 111.089844 294.234375 111.332031 294.09375 111.554688 C 293.953125 111.777344 293.773438 111.96875 293.558594 112.128906 C 293.347656 112.289062 293.113281 112.40625 292.855469 112.480469 Z M 287.292969 105.722656 L 287.292969 104.171875 C 287.292969 104.152344 287.304688 104.144531 287.320312 104.144531 L 297.136719 104.144531 C 297.152344 104.144531 297.164062 104.152344 297.164062 104.171875 L 297.164062 105.722656 C 297.164062 105.738281 297.152344 105.75 297.136719 105.75 L 287.320312 105.75 C 287.304688 105.75 287.292969 105.738281 287.292969 105.722656 Z M 287.292969 105.722656 " fill-opacity="1" fill-rule="nonzero"/></g><path fill="#000000" d="M 295.546875 123.457031 C 296.332031 123.140625 297.054688 122.71875 297.714844 122.191406 C 298.375 121.667969 298.945312 121.058594 299.425781 120.367188 C 299.90625 119.679688 300.273438 118.9375 300.535156 118.140625 C 300.792969 117.34375 300.933594 116.527344 300.949219 115.691406 L 301.683594 115.691406 C 301.789062 115.691406 301.882812 115.65625 301.957031 115.578125 C 302.03125 115.503906 302.070312 115.414062 302.070312 115.308594 L 302.070312 113.515625 C 302.070312 113.410156 302.03125 113.320312 301.957031 113.246094 C 301.882812 113.171875 301.789062 113.132812 301.683594 113.132812 L 299.863281 113.132812 C 299.753906 113.132812 299.664062 113.171875 299.585938 113.246094 C 299.511719 113.320312 299.472656 113.410156 299.472656 113.515625 L 299.472656 115.308594 C 299.472656 115.414062 299.511719 115.503906 299.585938 115.578125 C 299.664062 115.65625 299.753906 115.691406 299.863281 115.691406 L 300.589844 115.691406 C 300.574219 116.492188 300.4375 117.273438 300.191406 118.035156 C 299.941406 118.800781 299.585938 119.511719 299.125 120.171875 C 298.664062 120.832031 298.121094 121.414062 297.488281 121.917969 C 296.855469 122.421875 296.160156 122.824219 295.410156 123.128906 C 295.296875 123.175781 295.265625 123.253906 295.3125 123.363281 C 295.355469 123.472656 295.433594 123.503906 295.546875 123.457031 Z M 299.863281 115.335938 C 299.84375 115.335938 299.832031 115.328125 299.832031 115.308594 L 299.832031 113.515625 C 299.832031 113.5 299.84375 113.488281 299.863281 113.488281 L 301.683594 113.488281 C 301.703125 113.488281 301.710938 113.5 301.710938 113.515625 L 301.710938 115.308594 C 301.710938 115.328125 301.703125 115.335938 301.683594 115.335938 Z M 299.863281 115.335938 " fill-opacity="1" fill-rule="nonzero"/><g clip-path="url(#4e21942f71)"><path fill="#000000" d="M 282.566406 125.203125 C 282.890625 125.203125 283.171875 125.097656 283.417969 124.886719 C 283.664062 124.679688 283.808594 124.417969 283.851562 124.101562 L 290.929688 124.101562 L 290.929688 124.820312 C 290.929688 124.925781 290.96875 125.015625 291.042969 125.089844 C 291.121094 125.164062 291.210938 125.203125 291.320312 125.203125 L 293.136719 125.203125 C 293.246094 125.203125 293.335938 125.164062 293.414062 125.089844 C 293.488281 125.015625 293.527344 124.925781 293.527344 124.820312 L 293.527344 124.101562 L 300.605469 124.101562 C 300.621094 124.207031 300.648438 124.308594 300.6875 124.410156 C 300.730469 124.507812 300.785156 124.601562 300.847656 124.6875 C 300.914062 124.773438 300.988281 124.851562 301.074219 124.917969 C 301.15625 124.984375 301.25 125.039062 301.347656 125.085938 C 301.449219 125.128906 301.550781 125.164062 301.65625 125.183594 C 301.765625 125.199219 301.871094 125.207031 301.980469 125.199219 C 302.089844 125.191406 302.195312 125.171875 302.300781 125.136719 C 302.402344 125.105469 302.5 125.058594 302.59375 125 C 302.683594 124.941406 302.765625 124.875 302.839844 124.796875 C 302.914062 124.71875 302.980469 124.632812 303.03125 124.539062 C 303.082031 124.441406 303.125 124.34375 303.152344 124.242188 C 303.175781 124.136719 303.191406 124.03125 303.191406 123.921875 C 303.191406 123.816406 303.175781 123.710938 303.152344 123.605469 C 303.125 123.503906 303.082031 123.402344 303.03125 123.308594 C 302.980469 123.214844 302.914062 123.128906 302.839844 123.050781 C 302.765625 122.972656 302.683594 122.90625 302.59375 122.847656 C 302.5 122.789062 302.402344 122.742188 302.300781 122.710938 C 302.195312 122.675781 302.089844 122.65625 301.980469 122.648438 C 301.871094 122.640625 301.765625 122.644531 301.65625 122.664062 C 301.550781 122.683594 301.449219 122.71875 301.347656 122.761719 C 301.25 122.804688 301.15625 122.863281 301.074219 122.929688 C 300.988281 122.996094 300.914062 123.074219 300.847656 123.160156 C 300.785156 123.246094 300.730469 123.339844 300.6875 123.4375 C 300.648438 123.539062 300.621094 123.640625 300.605469 123.746094 L 293.527344 123.746094 L 293.527344 123.027344 C 293.527344 122.921875 293.488281 122.832031 293.414062 122.757812 C 293.335938 122.683594 293.246094 122.644531 293.136719 122.644531 L 291.320312 122.644531 C 291.210938 122.644531 291.121094 122.683594 291.042969 122.757812 C 290.96875 122.832031 290.929688 122.921875 290.929688 123.027344 L 290.929688 123.648438 C 286.945312 123.035156 283.953125 119.667969 283.867188 115.691406 L 284.59375 115.691406 C 284.703125 115.691406 284.792969 115.65625 284.871094 115.578125 C 284.945312 115.503906 284.984375 115.414062 284.984375 115.308594 L 284.984375 113.515625 C 284.984375 113.410156 284.945312 113.320312 284.871094 113.246094 C 284.792969 113.171875 284.703125 113.132812 284.59375 113.132812 L 282.773438 113.132812 C 282.667969 113.132812 282.574219 113.171875 282.5 113.246094 C 282.421875 113.320312 282.386719 113.410156 282.386719 113.515625 L 282.386719 115.308594 C 282.386719 115.414062 282.421875 115.503906 282.5 115.578125 C 282.574219 115.65625 282.667969 115.691406 282.773438 115.691406 L 283.507812 115.691406 C 283.527344 116.601562 283.6875 117.484375 283.992188 118.34375 C 284.296875 119.203125 284.730469 119.996094 285.289062 120.71875 C 285.851562 121.441406 286.511719 122.0625 287.273438 122.582031 C 288.03125 123.097656 288.855469 123.488281 289.742188 123.746094 L 283.851562 123.746094 C 283.828125 123.582031 283.777344 123.429688 283.691406 123.289062 C 283.609375 123.144531 283.503906 123.023438 283.371094 122.921875 C 283.242188 122.820312 283.09375 122.746094 282.933594 122.699219 C 282.773438 122.652344 282.613281 122.636719 282.445312 122.652344 C 282.277344 122.664062 282.121094 122.710938 281.972656 122.785156 C 281.824219 122.859375 281.695312 122.960938 281.585938 123.085938 C 281.476562 123.207031 281.394531 123.347656 281.339844 123.503906 C 281.285156 123.660156 281.261719 123.820312 281.265625 123.984375 C 281.273438 124.148438 281.3125 124.304688 281.382812 124.453125 C 281.453125 124.605469 281.546875 124.734375 281.667969 124.847656 C 281.789062 124.960938 281.925781 125.050781 282.082031 125.109375 C 282.238281 125.171875 282.398438 125.203125 282.566406 125.203125 Z M 301.890625 123 C 301.894531 123 301.894531 123 301.894531 123 C 301.699219 123.195312 301.566406 123.535156 301.566406 123.921875 C 301.566406 124.3125 301.699219 124.652344 301.894531 124.847656 C 301.894531 124.847656 301.894531 124.847656 301.890625 124.847656 C 301.632812 124.847656 301.410156 124.757812 301.226562 124.578125 C 301.042969 124.398438 300.953125 124.179688 300.953125 123.921875 C 300.953125 123.667969 301.042969 123.449219 301.226562 123.269531 C 301.410156 123.089844 301.632812 123 301.890625 123 Z M 291.289062 123.027344 C 291.289062 123.007812 291.300781 123 291.320312 123 L 293.136719 123 C 293.15625 123 293.167969 123.007812 293.167969 123.027344 L 293.167969 124.820312 C 293.167969 124.839844 293.15625 124.847656 293.136719 124.847656 L 291.320312 124.847656 C 291.300781 124.847656 291.289062 124.839844 291.289062 124.820312 Z M 282.773438 115.335938 C 282.753906 115.335938 282.746094 115.328125 282.746094 115.308594 L 282.746094 113.515625 C 282.746094 113.5 282.753906 113.488281 282.773438 113.488281 L 284.59375 113.488281 C 284.613281 113.488281 284.625 113.5 284.625 113.515625 L 284.625 115.308594 C 284.625 115.328125 284.613281 115.335938 284.59375 115.335938 Z M 282.566406 123 C 282.566406 123 282.570312 123 282.570312 123 C 282.371094 123.195312 282.242188 123.535156 282.242188 123.921875 C 282.242188 124.3125 282.371094 124.652344 282.570312 124.847656 C 282.570312 124.847656 282.566406 124.847656 282.566406 124.847656 C 282.304688 124.847656 282.085938 124.757812 281.902344 124.578125 C 281.71875 124.398438 281.625 124.179688 281.625 123.921875 C 281.625 123.667969 281.71875 123.449219 281.902344 123.269531 C 282.085938 123.089844 282.304688 123 282.566406 123 Z M 282.566406 123 " fill-opacity="1" fill-rule="nonzero"/></g></g></g></svg>